<svg width="814" height="97" viewBox="0 0 814 97" fill="none" xmlns="http://www.w3.org/2000/svg">
<path d="M188.428 59.1429C188.428 63.432 187.862 67.3833 186.731 70.9879C185.599 74.5971 183.911 77.7043 181.671 80.3188C179.426 82.9333 176.62 84.9683 173.248 86.4329C169.872 87.8976 165.967 88.6276 161.518 88.6276C157.07 88.6276 153.415 87.9843 150.199 86.6976C146.982 85.4109 144.299 83.5401 142.155 81.0808C140.011 78.626 138.409 75.642 137.36 72.1286C136.311 68.6153 135.781 64.6411 135.781 60.1969C135.781 55.7528 136.338 51.9566 137.447 48.352C138.56 44.7428 140.234 41.6355 142.479 39.0211C144.719 36.4066 147.521 34.3807 150.874 32.9389C154.227 31.4971 158.147 30.7761 162.632 30.7761C167.117 30.7761 170.735 31.4195 173.951 32.7062C177.168 33.9929 179.85 35.8636 181.995 38.323C184.139 40.7777 185.75 43.7618 186.822 47.2751C187.894 50.7839 188.433 54.7444 188.433 59.1521L188.428 59.1429ZM178.427 59.7863C178.427 56.9391 178.162 54.2471 177.628 51.7147C177.095 49.1778 176.223 46.9558 175.001 45.0439C173.782 43.1321 172.126 41.6219 170.041 40.5085C167.956 39.3952 165.36 38.8431 162.253 38.8431C159.379 38.8431 156.91 39.3496 154.843 40.3625C152.777 41.3755 151.075 42.8082 149.738 44.6607C148.401 46.5132 147.406 48.7079 146.759 51.2402C146.111 53.7771 145.787 56.5422 145.787 59.549C145.787 62.5559 146.051 65.1476 146.585 67.6799C147.115 70.2168 148.004 72.4298 149.241 74.3188C150.482 76.2123 152.142 77.7135 154.227 78.8222C156.313 79.931 158.909 80.4876 162.02 80.4876C164.854 80.4876 167.313 79.9812 169.398 78.9682C171.483 77.9553 173.194 76.5317 174.535 74.6975C175.872 72.8632 176.857 70.6822 177.487 68.1453C178.117 65.6084 178.432 62.8206 178.432 59.7817L178.427 59.7863Z" fill="black"/>
<path d="M248.26 59.1429C248.26 63.432 247.695 67.3833 246.563 70.9879C245.432 74.5971 243.744 77.7043 241.503 80.3188C239.259 82.9333 236.453 84.9683 233.081 86.4329C229.705 87.8976 225.799 88.6276 221.351 88.6276C216.902 88.6276 213.248 87.9843 210.031 86.6976C206.815 85.4109 204.132 83.5401 201.988 81.0808C199.843 78.626 198.242 75.642 197.192 72.1286C196.143 68.6153 195.614 64.6411 195.614 60.1969C195.614 55.7528 196.17 51.9566 197.279 48.352C198.392 44.7428 200.067 41.6355 202.312 39.0211C204.552 36.4066 207.353 34.3807 210.707 32.9389C214.06 31.4971 217.979 30.7761 222.464 30.7761C226.949 30.7761 230.567 31.4195 233.784 32.7062C237 33.9929 239.683 35.8636 241.827 38.323C243.972 40.7777 245.582 43.7618 246.654 47.2751C247.727 50.7839 248.265 54.7444 248.265 59.1521L248.26 59.1429ZM238.259 59.7863C238.259 56.9391 237.995 54.2471 237.461 51.7147C236.927 49.1778 236.056 46.9558 234.833 45.0439C233.615 43.1321 231.959 41.6219 229.874 40.5085C227.789 39.3952 225.192 38.8431 222.085 38.8431C219.211 38.8431 216.743 39.3496 214.676 40.3625C212.609 41.3755 210.907 42.8082 209.57 44.6607C208.234 46.5132 207.239 48.7079 206.591 51.2402C205.943 53.7771 205.619 56.5422 205.619 59.549C205.619 62.5559 205.884 65.1476 206.418 67.6799C206.947 70.2168 207.837 72.4298 209.073 74.3188C210.314 76.2123 211.975 77.7135 214.06 78.8222C216.145 79.931 218.741 80.4876 221.853 80.4876C224.686 80.4876 227.145 79.9812 229.23 78.9682C231.315 77.9553 233.026 76.5317 234.368 74.6975C235.704 72.8632 236.69 70.6822 237.32 68.1453C237.949 65.6084 238.264 62.8206 238.264 59.7817L238.259 59.7863Z" fill="black"/>
<path d="M298.676 85.9949C298.676 86.3051 298.599 86.5789 298.443 86.8116C298.288 87.0443 298.024 87.2405 297.654 87.3956C297.285 87.5508 296.764 87.6694 296.103 87.747C295.441 87.8246 294.602 87.8656 293.589 87.8656C292.576 87.8656 291.668 87.8382 290.984 87.7789C290.299 87.7196 289.725 87.6238 289.259 87.4869C288.794 87.35 288.411 87.1538 288.119 86.9029C287.827 86.6474 287.562 86.3462 287.329 85.9949L265.101 56.8615V86.0542C265.101 86.3645 265.023 86.6291 264.868 86.8436C264.713 87.058 264.457 87.2451 264.106 87.4002C263.755 87.5553 263.267 87.674 262.642 87.7516C262.016 87.8291 261.218 87.8702 260.242 87.8702C259.265 87.8702 258.526 87.8291 257.901 87.7516C257.276 87.674 256.779 87.5553 256.409 87.4002C256.04 87.2451 255.784 87.058 255.647 86.8436C255.51 86.6291 255.442 86.3645 255.442 86.0542V7.89833C255.442 7.58806 255.51 7.31429 255.647 7.08159C255.784 6.84889 256.035 6.65269 256.409 6.49755C256.779 6.34242 257.276 6.22379 257.901 6.14622C258.526 6.06866 259.306 6.02759 260.242 6.02759C261.177 6.02759 262.016 6.06866 262.642 6.14622C263.267 6.22379 263.755 6.34242 264.106 6.49755C264.457 6.65269 264.708 6.84889 264.868 7.08159C265.023 7.31429 265.101 7.58806 265.101 7.89833V55.5155L284.989 33.637C285.299 33.2491 285.632 32.9252 285.983 32.6697C286.335 32.4142 286.754 32.1997 287.243 32.0263C287.731 31.8529 288.306 31.7343 288.967 31.675C289.629 31.6157 290.432 31.5883 291.367 31.5883C292.302 31.5883 293.16 31.6157 293.822 31.675C294.483 31.7343 295.022 31.8301 295.432 31.967C295.843 32.1039 296.135 32.2773 296.308 32.4917C296.482 32.7062 296.573 32.9891 296.573 33.3404C296.573 33.8104 296.445 34.2758 296.194 34.7457C295.939 35.2157 295.523 35.7587 294.935 36.3838L275.864 55.4562L297.271 83.2435C297.777 83.9051 298.138 84.4435 298.352 84.8542C298.567 85.2648 298.676 85.6435 298.676 85.9949Z" fill="black"/>
<path d="M343.124 71.7225C343.124 74.4145 342.627 76.81 341.632 78.918C340.638 81.026 339.223 82.8009 337.389 84.2428C335.555 85.6846 333.37 86.7797 330.837 87.5188C328.301 88.258 325.513 88.6322 322.474 88.6322C320.604 88.6322 318.82 88.4861 317.123 88.1941C315.425 87.9021 313.906 87.5325 312.56 87.0808C311.214 86.6291 310.073 86.1637 309.138 85.6755C308.203 85.1873 307.518 84.7492 307.09 84.3614C306.661 83.9736 306.346 83.426 306.154 82.7233C305.958 82.0207 305.862 81.0671 305.862 79.8579C305.862 79.1188 305.899 78.4936 305.981 77.9872C306.058 77.4807 306.154 77.0701 306.273 76.7598C306.392 76.4495 306.556 76.226 306.77 76.0891C306.985 75.9522 307.226 75.8837 307.5 75.8837C307.929 75.8837 308.563 76.1484 309.403 76.6731C310.242 77.1978 311.273 77.7773 312.505 78.3978C313.733 79.0229 315.183 79.5978 316.862 80.1226C318.537 80.6473 320.471 80.9119 322.652 80.9119C324.29 80.9119 325.773 80.7385 327.096 80.3872C328.424 80.0359 329.574 79.5203 330.545 78.8358C331.522 78.156 332.27 77.2845 332.799 76.2305C333.329 75.1765 333.589 73.9309 333.589 72.4845C333.589 71.0381 333.21 69.7559 332.448 68.7384C331.686 67.7255 330.682 66.8266 329.437 66.0464C328.187 65.2662 326.786 64.5726 325.226 63.9703C323.665 63.368 322.055 62.7338 320.398 62.0676C318.742 61.406 317.123 60.6532 315.544 59.8136C313.965 58.9741 312.551 57.952 311.301 56.7429C310.051 55.5337 309.047 54.0919 308.29 52.4128C307.528 50.7383 307.149 48.7261 307.149 46.3854C307.149 44.3184 307.546 42.3382 308.349 40.4492C309.147 38.5556 310.347 36.8993 311.944 35.4758C313.541 34.0522 315.539 32.9115 317.939 32.0537C320.339 31.1959 323.136 30.767 326.334 30.767C327.739 30.767 329.14 30.8856 330.545 31.1183C331.951 31.351 333.214 31.643 334.346 31.9944C335.477 32.3457 336.44 32.7244 337.243 33.1351C338.042 33.5457 338.648 33.9062 339.054 34.2164C339.465 34.5267 339.734 34.8005 339.871 35.0332C340.008 35.2659 340.104 35.5305 340.163 35.8225C340.222 36.1146 340.282 36.475 340.337 36.9039C340.396 37.3328 340.423 37.8575 340.423 38.4826C340.423 39.1442 340.396 39.7191 340.337 40.2074C340.277 40.6956 340.181 41.0925 340.045 41.4074C339.908 41.7176 339.743 41.9458 339.547 42.0781C339.351 42.215 339.137 42.2834 338.904 42.2834C338.553 42.2834 338.046 42.069 337.385 41.6401C336.723 41.2112 335.865 40.7549 334.811 40.2667C333.757 39.7785 332.521 39.3222 331.097 38.8933C329.674 38.4644 328.045 38.2499 326.211 38.2499C324.573 38.2499 323.131 38.437 321.881 38.8066C320.631 39.1762 319.609 39.7055 318.811 40.3853C318.012 41.0697 317.405 41.8773 316.999 42.8127C316.593 43.7481 316.383 44.761 316.383 45.8561C316.383 47.3755 316.771 48.6531 317.551 49.6888C318.332 50.7246 319.344 51.628 320.595 52.4082C321.84 53.1885 323.264 53.8911 324.865 54.5162C326.462 55.1413 328.091 55.7847 329.752 56.4463C331.408 57.1079 333.046 57.8516 334.665 58.6684C336.285 59.4851 337.718 60.4798 338.963 61.6524C340.209 62.8205 341.217 64.2258 341.974 65.8639C342.732 67.5019 343.115 69.4502 343.115 71.7134L343.124 71.7225Z" fill="black"/>
<path d="M396.405 43.6751C396.629 43.3694 387.686 27.8103 403.824 17.2657C408.984 13.8938 413.688 13.4968 415.919 13.6337C434.351 14.7744 429.547 33.856 422.649 33.71C420.819 33.6735 422.767 31.1183 423.173 26.665C423.401 24.1418 421.476 19.7296 415.079 18.963C406.552 17.9455 393.932 28.2164 398.112 40.7777C398.746 42.6941 399.275 44.0173 401.912 43.7937C407.387 43.3329 408.943 46.3306 408.943 48.2287C408.943 51.3588 405.694 53.3436 400.995 49.0774C397.085 45.5276 392.71 46.1663 389.174 50.1177C385.113 54.644 385.295 61.0547 387.645 66.1513C390.83 73.0548 398.098 80.1545 406.885 82.6686C418.926 86.1181 431.272 84.699 441.898 76.7278C446.287 73.4335 449.207 69.1445 449.631 63.4912C450.115 57.0942 446.15 50.9299 439.863 48.7808C433.051 46.4584 426.682 47.412 420.714 51.6919C418.173 53.517 416.266 57.4501 416.64 59.7498C417.306 63.8334 419.277 65.7726 420.892 66.4433C423.119 67.365 424.318 66.4798 424.209 64.0661C424.141 62.5513 424.136 56.4645 429.739 56.8569C431.778 56.9984 433.366 59.006 433.676 61.0091C434.434 65.9095 431.454 70.0114 425.902 70.4632C418.866 71.0381 411.845 64.6958 414.514 55.374C416.553 48.2424 421.481 44.0583 428.653 42.3884C433.279 41.3115 437.974 41.2796 442.683 41.1792C447.628 41.0743 452.565 40.6864 457.251 38.9206C461.777 37.2187 465.194 34.3716 466.097 29.3571C466.8 25.4741 466.49 21.7509 463.405 18.7897C461.074 16.5448 458.273 15.801 455.134 16.3531C452.743 16.7684 452.191 18.1281 453.427 20.2452C453.929 21.0984 454.509 21.9517 454.791 22.8825C455.599 25.5973 454.075 28.3304 451.379 29.2339C448.363 30.2422 445.402 29.0057 444.27 26.2042C443.212 23.6034 443.618 21.1304 445.279 18.9357C448.596 14.5554 453.249 13.2231 458.441 13.7706C466.189 14.5919 471.613 21.9608 470.655 30.0552C469.592 39.0484 463.483 45.6188 454.148 47.193C451.484 47.6401 445.201 47.7679 444.608 47.8363C444.206 47.8865 447.117 50.0538 448.08 51.1215C457.958 62.0175 452.825 76.518 441.925 84.1515C431.755 91.2694 416.129 94.2307 403.153 90.6672C394.206 88.0436 385.451 82.3994 381.326 73.6252C378.981 68.638 378.374 63.3498 379.642 58.0341C382.877 44.4599 396.401 43.6705 396.401 43.6705" fill="black"/>
<path d="M108.854 45.3132C111.682 43.9352 114.237 41.9869 116.35 39.555C120.844 34.3762 122.865 27.4682 121.893 20.6012C120.26 9.08015 110.017 0.388062 98.0633 0.388062H1.1147L1.30176 8.99803L9.61463 9.26723C10.6823 9.30373 11.5172 10.1661 11.5172 11.2338V36.758C11.5172 37.8439 10.6321 38.7245 9.5462 38.7245H0.731445V51.9019H9.5462C10.6275 51.9019 11.5081 52.7779 11.5126 53.8456V78.7447C11.0974 79.5751 10.4587 80.4466 10.0846 80.6839L1.27895 80.6519L1.11013 90.2383H98.0587C110.008 90.2383 120.255 81.5462 121.889 70.0252C122.86 63.1582 120.844 56.2502 116.345 51.0714C114.233 48.6395 111.678 46.6912 108.849 45.3132H108.854ZM112.307 23.6993C112.481 27.637 111.076 31.3785 108.347 34.2302C105.692 37.0089 102.138 38.5922 98.3005 38.7245L27.0981 38.7382V9.9699H97.4017C105.281 9.9699 111.97 16.1297 112.307 23.6993ZM97.4063 80.6565H27.0981V51.9019L97.7804 51.911H98.2458C102.106 52.0296 105.678 53.6129 108.347 56.4053C111.076 59.2571 112.481 62.9985 112.307 66.9317C111.97 74.5013 105.286 80.6565 97.4063 80.6565Z" fill="#705D56"/>
<path d="M554.6 0.570557H504.18L504.322 6.89913L504.408 9.16227L506.667 9.24441C513.944 9.49992 514.574 9.94707 514.56 12.1326V78.7173C514.574 80.8937 513.94 81.3409 506.63 81.5964L504.367 81.674L504.176 90.2702H506.63C507.903 90.2702 519.145 90.2702 530.634 90.2702H555.07C585.502 89.668 599.304 66.6168 599.249 45.4501C599.194 24.151 585.197 1.02228 554.596 0.575124L554.6 0.570557ZM590.311 45.4136C590.311 62.3825 579.261 80.8344 555.007 81.2633H530.588V9.57291H554.988C579.261 9.99269 590.316 28.4446 590.316 45.4136H590.311Z" fill="#FF7F51"/>
<path d="M630.63 50.9162C630.63 51.555 630.616 52.0934 630.584 52.5269C630.557 52.9649 630.498 53.3025 630.411 53.5489C630.324 53.7953 630.215 53.9869 630.083 54.1147C629.95 54.247 629.768 54.3109 629.54 54.3109C629.311 54.3109 629.024 54.247 628.691 54.1147C628.358 53.9824 627.979 53.8546 627.559 53.7223C627.14 53.59 626.665 53.4668 626.141 53.3527C625.616 53.2386 625.05 53.1793 624.439 53.1793C623.713 53.1793 623.002 53.3253 622.303 53.6174C621.605 53.9094 620.871 54.3885 620.104 55.0546C619.333 55.7254 618.53 56.6105 617.686 57.7147C616.842 58.8189 615.916 60.1695 614.899 61.7665V87.569C614.899 87.8017 614.839 87.9979 614.725 88.1576C614.611 88.3173 614.419 88.4542 614.159 88.5728C613.899 88.6914 613.534 88.7736 613.069 88.8329C612.604 88.8922 612.006 88.9196 611.28 88.9196C610.555 88.9196 610.003 88.8922 609.538 88.8329C609.072 88.7736 608.703 88.6869 608.424 88.5728C608.146 88.4587 607.959 88.3173 607.859 88.1576C607.758 87.9979 607.708 87.8017 607.708 87.569V48.3428C607.708 48.1101 607.754 47.9139 607.84 47.7542C607.927 47.5945 608.1 47.4485 608.365 47.3162C608.63 47.1838 608.958 47.0971 609.369 47.0561C609.775 47.0105 610.313 46.9922 610.979 46.9922C611.645 46.9922 612.147 47.015 612.572 47.0561C612.991 47.1017 613.32 47.1884 613.553 47.3162C613.785 47.4485 613.95 47.5945 614.054 47.7542C614.155 47.9139 614.205 48.1101 614.205 48.3428V54.0508C615.277 52.4812 616.29 51.2036 617.235 50.2135C618.179 49.228 619.073 48.4477 619.917 47.8819C620.761 47.3162 621.596 46.9238 622.422 46.7047C623.248 46.4857 624.083 46.3762 624.927 46.3762C625.306 46.3762 625.734 46.399 626.214 46.4401C626.693 46.4857 627.194 46.5633 627.719 46.6819C628.244 46.8006 628.714 46.9283 629.138 47.0743C629.558 47.2203 629.859 47.3664 630.032 47.5124C630.206 47.6584 630.324 47.7953 630.379 47.9276C630.438 48.0599 630.489 48.2241 630.53 48.4295C630.571 48.6348 630.603 48.9314 630.616 49.3238C630.63 49.7162 630.639 50.2455 630.639 50.9162H630.63Z" fill="black"/>
<path d="M673.513 66.2563C673.513 67.3878 673.23 68.1954 672.66 68.6745C672.089 69.1536 671.441 69.3954 670.711 69.3954H644.878C644.878 71.5764 645.097 73.5339 645.535 75.2814C645.973 77.0244 646.704 78.521 647.726 79.7712C648.748 81.0214 650.075 81.9796 651.709 82.6458C653.342 83.3165 655.345 83.6496 657.708 83.6496C659.574 83.6496 661.24 83.499 662.7 83.1933C664.16 82.8876 665.423 82.5454 666.486 82.1712C667.554 81.7925 668.43 81.4503 669.114 81.1492C669.799 80.848 670.319 80.6929 670.67 80.6929C670.876 80.6929 671.058 80.7431 671.218 80.8435C671.377 80.9438 671.501 81.099 671.592 81.2997C671.679 81.5051 671.742 81.788 671.788 82.1484C671.834 82.5134 671.857 82.956 671.857 83.4762C671.857 83.8549 671.843 84.1789 671.811 84.4572C671.784 84.7355 671.747 84.9819 671.701 85.1963C671.66 85.4154 671.587 85.6116 671.482 85.785C671.382 85.9584 671.25 86.1272 671.09 86.2869C670.93 86.4466 670.46 86.7067 669.676 87.0717C668.891 87.4367 667.873 87.7926 666.623 88.1393C665.373 88.4861 663.927 88.8009 662.284 89.0747C660.642 89.3485 658.89 89.4899 657.033 89.4899C653.807 89.4899 650.983 89.0382 648.556 88.1393C646.129 87.2405 644.089 85.9036 642.433 84.1287C640.777 82.3583 639.527 80.1317 638.687 77.4579C637.843 74.7841 637.423 71.6768 637.423 68.1316C637.423 64.5863 637.861 61.73 638.733 59.0425C639.604 56.355 640.859 54.0736 642.501 52.1983C644.144 50.323 646.124 48.8858 648.451 47.8819C650.773 46.8781 653.374 46.3762 656.253 46.3762C659.332 46.3762 661.956 46.869 664.119 47.8591C666.281 48.8492 668.065 50.177 669.457 51.847C670.853 53.517 671.875 55.479 672.532 57.733C673.184 59.987 673.513 62.3916 673.513 64.9467V66.2563ZM666.277 64.1209C666.363 60.3429 665.524 57.3816 663.754 55.228C661.983 53.0789 659.36 52.0021 655.883 52.0021C654.099 52.0021 652.534 52.3352 651.193 53.0059C649.847 53.6767 648.72 54.5619 647.817 55.666C646.909 56.7702 646.211 58.057 645.713 59.5216C645.216 60.9908 644.938 62.5239 644.878 64.1209H666.277Z" fill="black"/>
<path d="M712.805 87.6147C712.805 87.9614 712.691 88.2261 712.459 88.3995C712.226 88.5728 711.906 88.7052 711.5 88.7918C711.094 88.8785 710.497 88.9242 709.712 88.9242C708.927 88.9242 708.352 88.8785 707.905 88.7918C707.453 88.7052 707.125 88.5728 706.924 88.3995C706.719 88.2261 706.619 87.9614 706.619 87.6147V83.6907C704.903 85.5203 702.996 86.9439 700.888 87.9614C698.78 88.9789 696.554 89.4854 694.199 89.4854C692.137 89.4854 690.271 89.2162 688.597 88.6778C686.922 88.1394 685.503 87.3637 684.326 86.3462C683.149 85.3287 682.232 84.0785 681.58 82.6001C680.927 81.1172 680.599 79.4336 680.599 77.5446C680.599 75.3362 681.05 73.4198 681.949 71.7909C682.848 70.162 684.144 68.8115 685.827 67.7392C687.511 66.6669 689.573 65.8593 692.014 65.3209C694.455 64.7825 697.202 64.5133 700.249 64.5133H705.651V61.4608C705.651 59.9505 705.492 58.6136 705.172 57.4501C704.853 56.2866 704.337 55.3239 703.626 54.5528C702.914 53.7816 701.992 53.2022 700.856 52.8098C699.72 52.4174 698.328 52.2212 696.672 52.2212C694.902 52.2212 693.31 52.431 691.9 52.8554C690.49 53.2752 689.254 53.7406 688.195 54.2516C687.132 54.7627 686.247 55.2235 685.535 55.6478C684.824 56.0676 684.294 56.282 683.943 56.282C683.71 56.282 683.505 56.2227 683.332 56.1086C683.158 55.9946 683.003 55.8166 682.875 55.5839C682.743 55.3512 682.652 55.0547 682.592 54.6896C682.533 54.3246 682.506 53.9276 682.506 53.4896C682.506 52.7641 682.556 52.1892 682.656 51.7695C682.757 51.3497 683.003 50.9481 683.4 50.5694C683.792 50.1907 684.468 49.7481 685.426 49.2417C686.384 48.7352 687.488 48.2698 688.738 47.8455C689.988 47.4257 691.352 47.0744 692.835 46.8006C694.318 46.5268 695.815 46.3854 697.325 46.3854C700.144 46.3854 702.54 46.7048 704.515 47.3436C706.491 47.9824 708.088 48.9223 709.31 50.1542C710.529 51.3907 711.418 52.9238 711.97 54.7535C712.522 56.5832 712.796 58.7186 712.796 61.1596V87.6147H712.805ZM705.656 69.7012H699.51C697.535 69.7012 695.819 69.87 694.368 70.2031C692.913 70.5362 691.708 71.0289 690.75 71.686C689.792 72.343 689.085 73.1233 688.638 74.0404C688.186 74.9575 687.963 76.0115 687.963 77.2024C687.963 79.2374 688.61 80.8572 689.902 82.0617C691.193 83.2663 693.004 83.8686 695.326 83.8686C697.215 83.8686 698.967 83.3895 700.578 82.4313C702.188 81.4731 703.881 80.0039 705.656 78.0283V69.7058V69.7012Z" fill="black"/>
<path d="M778.2 87.569C778.2 87.8017 778.14 87.9979 778.026 88.1576C777.912 88.3173 777.721 88.4542 777.46 88.5728C777.2 88.6914 776.835 88.7736 776.37 88.8329C775.905 88.8922 775.325 88.9196 774.627 88.9196C773.929 88.9196 773.304 88.8922 772.839 88.8329C772.373 88.7736 772.004 88.6869 771.725 88.5728C771.447 88.4587 771.251 88.3173 771.137 88.1576C771.023 87.9979 770.963 87.8017 770.963 87.569V63.7285C770.963 62.0722 770.817 60.5619 770.525 59.1976C770.233 57.8334 769.768 56.6562 769.129 55.666C768.491 54.6805 767.674 53.9231 766.688 53.3983C765.698 52.8736 764.539 52.6135 763.203 52.6135C761.546 52.6135 759.881 53.2523 758.211 54.5299C756.541 55.8075 754.703 57.6828 752.7 60.1513V87.5644C752.7 87.7971 752.64 87.9934 752.526 88.153C752.412 88.3127 752.212 88.4496 751.938 88.5683C751.664 88.6869 751.29 88.769 750.825 88.8283C750.359 88.8876 749.78 88.915 749.082 88.915C748.384 88.915 747.841 88.8876 747.362 88.8283C746.883 88.769 746.504 88.6823 746.23 88.5683C745.952 88.4542 745.765 88.3127 745.664 88.153C745.564 87.9934 745.514 87.7971 745.514 87.5644V63.7239C745.514 62.0676 745.354 60.5573 745.035 59.1931C744.715 57.8288 744.236 56.6516 743.598 55.6615C742.959 54.6759 742.151 53.9185 741.179 53.3938C740.208 52.8691 739.049 52.609 737.717 52.609C736.06 52.609 734.39 53.2478 732.702 54.5254C731.019 55.8029 729.185 57.6782 727.209 60.1467V87.5599C727.209 87.7926 727.15 87.9888 727.036 88.1485C726.922 88.3082 726.73 88.4451 726.47 88.5637C726.21 88.6823 725.845 88.7644 725.379 88.8238C724.914 88.8831 724.316 88.9105 723.591 88.9105C722.866 88.9105 722.313 88.8831 721.848 88.8238C721.383 88.7644 721.013 88.6778 720.735 88.5637C720.457 88.4496 720.269 88.3082 720.169 88.1485C720.069 87.9888 720.019 87.7926 720.019 87.5599V48.3337C720.019 48.101 720.064 47.9048 720.151 47.7451C720.238 47.5854 720.411 47.4394 720.676 47.307C720.94 47.1747 721.269 47.088 721.679 47.0469C722.085 47.0013 722.624 46.9831 723.29 46.9831C723.956 46.9831 724.458 47.0059 724.882 47.0469C725.302 47.0926 725.63 47.1793 725.863 47.307C726.096 47.4394 726.26 47.5854 726.365 47.7451C726.465 47.9048 726.516 48.101 726.516 48.3337V53.5215C728.724 51.0531 730.868 49.2417 732.944 48.0964C735.02 46.9511 737.119 46.3762 739.24 46.3762C740.869 46.3762 742.329 46.5679 743.62 46.942C744.912 47.3207 746.052 47.85 747.042 48.5344C748.028 49.2188 748.872 50.031 749.57 50.9755C750.268 51.92 750.847 52.974 751.313 54.1375C752.622 52.7139 753.863 51.5094 755.04 50.5192C756.217 49.5337 757.349 48.7306 758.439 48.1238C759.53 47.5124 760.588 47.0698 761.619 46.796C762.651 46.5222 763.691 46.3808 764.736 46.3808C767.263 46.3808 769.385 46.8234 771.1 47.7086C772.816 48.5937 774.203 49.7801 775.261 51.263C776.32 52.7459 777.077 54.4797 777.529 56.4737C777.981 58.463 778.204 60.5619 778.204 62.7703V87.569H778.2Z" fill="black"/>
<path d="M813.55 76.8921C813.55 78.8952 813.18 80.6838 812.436 82.2534C811.693 83.823 810.643 85.1462 809.275 86.2184C807.91 87.2952 806.282 88.1074 804.393 88.6595C802.504 89.2116 800.428 89.4854 798.16 89.4854C796.764 89.4854 795.436 89.3759 794.173 89.1569C792.909 88.9378 791.777 88.664 790.774 88.331C789.77 87.9979 788.921 87.6466 788.223 87.2861C787.525 86.9211 787.019 86.5971 786.699 86.3051C786.38 86.0131 786.147 85.607 786.001 85.0868C785.855 84.5621 785.782 83.8503 785.782 82.9515C785.782 82.3994 785.81 81.934 785.869 81.5552C785.928 81.1765 786.001 80.8708 786.088 80.6381C786.175 80.4054 786.298 80.2412 786.457 80.1362C786.617 80.0358 786.8 79.9856 787 79.9856C787.32 79.9856 787.79 80.1818 788.415 80.5742C789.04 80.9666 789.811 81.3955 790.723 81.8609C791.636 82.3263 792.722 82.7553 793.972 83.1477C795.222 83.5401 796.659 83.7363 798.288 83.7363C799.506 83.7363 800.61 83.6039 801.6 83.3438C802.586 83.0838 803.444 82.6959 804.174 82.1895C804.899 81.683 805.46 81.0351 805.853 80.2503C806.245 79.4655 806.441 78.5347 806.441 77.4624C806.441 76.3902 806.158 75.4274 805.593 74.6746C805.027 73.9171 804.279 73.251 803.348 72.6715C802.417 72.0921 801.372 71.5765 800.209 71.1247C799.045 70.673 797.85 70.203 796.614 69.7103C795.377 69.2175 794.173 68.6563 792.996 68.0312C791.818 67.4061 790.764 66.6441 789.834 65.7452C788.903 64.8463 788.155 63.7695 787.589 62.5193C787.023 61.2691 786.74 59.7725 786.74 58.0296C786.74 56.4919 787.037 55.0135 787.635 53.6036C788.232 52.1937 789.122 50.9618 790.317 49.8987C791.508 48.8401 793 47.9869 794.784 47.3481C796.573 46.7093 798.658 46.3899 801.039 46.3899C802.084 46.3899 803.133 46.4766 804.178 46.65C805.223 46.8234 806.167 47.0424 807.012 47.3024C807.856 47.5625 808.572 47.8454 809.17 48.1511C809.767 48.4568 810.214 48.726 810.52 48.9587C810.826 49.1914 811.027 49.3968 811.131 49.5702C811.232 49.7435 811.305 49.9397 811.35 50.1588C811.396 50.3778 811.437 50.647 811.483 50.9664C811.524 51.2858 811.547 51.6781 811.547 52.1436C811.547 52.6363 811.524 53.0652 811.483 53.4303C811.437 53.7953 811.364 54.0919 811.264 54.3246C811.163 54.5573 811.04 54.7261 810.894 54.8265C810.748 54.9269 810.589 54.977 810.415 54.977C810.155 54.977 809.776 54.8174 809.284 54.498C808.791 54.1786 808.152 53.8364 807.367 53.4759C806.583 53.1109 805.661 52.7732 804.598 52.4538C803.535 52.1345 802.326 51.9747 800.957 51.9747C799.739 51.9747 798.662 52.1116 797.731 52.39C796.801 52.6683 796.039 53.0607 795.446 53.5672C794.848 54.0782 794.401 54.6805 794.095 55.374C793.789 56.0721 793.639 56.8296 793.639 57.6417C793.639 58.7733 793.931 59.7269 794.51 60.498C795.09 61.2691 795.847 61.9444 796.778 62.5239C797.709 63.1034 798.767 63.6281 799.958 64.0935C801.149 64.5589 802.362 65.038 803.599 65.5308C804.835 66.0235 806.053 66.5756 807.258 67.1871C808.462 67.7985 809.53 68.5376 810.461 69.4091C811.392 70.2806 812.14 71.3255 812.706 72.5483C813.271 73.7666 813.554 75.2221 813.554 76.9058L813.55 76.8921Z" fill="black"/>
<path d="M108.726 45.2356C111.153 44.0447 113.38 42.4204 115.319 40.4128C119.808 35.7587 122.158 29.6309 121.925 23.1518C121.478 10.5996 110.66 0.388062 97.8124 0.388062H0.927734L1.11936 8.98434L9.40486 9.25354C10.4725 9.29004 11.312 10.1524 11.312 11.2201V36.6576C11.312 37.7435 10.4269 38.6242 9.34099 38.6242H0.982486V51.838H9.3638C10.4451 51.838 11.3257 52.714 11.3348 53.7954L11.4717 79.096C11.4717 79.6253 11.2709 80.1226 10.8968 80.4968C10.5227 80.8709 10.0299 81.0763 9.50067 81.0763H1.1148L0.932298 90.0786H97.8124C110.665 90.0786 121.478 79.8671 121.925 67.3149C122.158 60.8358 119.808 54.708 115.319 50.0539C113.38 48.0417 111.149 46.422 108.726 45.2311V45.2356ZM98.0451 81.0808H27.34V51.8517L98.328 51.8608H98.7934C102.567 51.9748 106.089 53.5125 108.749 56.2183C111.518 59.0335 113.006 62.7613 112.942 66.7172C112.809 74.6382 106.13 81.0808 98.0497 81.0808H98.0451ZM98.8435 38.615L27.34 38.6287V9.39042H98.0451C106.125 9.39042 112.805 15.8331 112.937 23.7541C113.006 27.71 111.514 31.4378 108.744 34.253C106.093 36.9451 102.598 38.4827 98.839 38.6105L98.8435 38.615Z" fill="#705D56"/>
<path d="M28.5854 66.4617H44.5998C45.2887 66.4617 45.8499 67.0229 45.8499 67.7119V95.0657C45.8499 96.3068 44.2348 96.7905 43.555 95.7502L37.642 86.7296C37.1492 85.9767 36.0451 85.9767 35.5478 86.7296L29.6348 95.7502C28.955 96.7905 27.3398 96.3068 27.3398 95.0657V67.7119C27.3398 67.0229 27.901 66.4617 28.59 66.4617H28.5854Z" fill="#FF7F51"/>
</svg>
