<svg width="71" height="53" viewBox="0 0 71 53" fill="none" xmlns="http://www.w3.org/2000/svg">
<path d="M63.2465 24.4064C64.6706 23.7583 65.977 22.8743 67.1146 21.7818C69.7487 19.249 71.1273 15.9142 70.9908 12.3882C70.7284 5.55718 64.3815 0 56.8435 0H0L0.112428 4.67817L4.97364 4.82467C5.60002 4.84453 6.09257 5.31384 6.09257 5.89488V19.7382C6.09257 20.3292 5.57326 20.8084 4.93616 20.8084H0.0321232V27.9995H4.94954C5.58396 27.9995 6.1006 28.4762 6.10596 29.0647L6.18626 42.8335C6.18626 43.1216 6.06848 43.3922 5.84897 43.5958C5.62947 43.7994 5.34037 43.9112 5.02985 43.9112H0.109753L0.00267745 48.8103H56.8435C64.3842 48.8103 70.7284 43.2532 70.9908 36.4221C71.1273 32.8961 69.7487 29.5613 67.1146 27.0286C65.977 25.9335 64.668 25.052 63.2465 24.4039V24.4064ZM56.98 43.9137H15.4964V28.0069L57.1459 28.0119H57.419C59.6328 28.074 61.6993 28.9108 63.2599 30.3833C64.8848 31.9153 65.7575 33.944 65.72 36.0969C65.6423 40.4075 61.7234 43.9137 56.9827 43.9137H56.98ZM57.4484 20.8034L15.4964 20.8109V4.89916H56.98C61.7207 4.89916 65.6397 8.4053 65.7173 12.716C65.7575 14.8688 64.8821 16.8975 63.2573 18.4296C61.702 19.8946 59.6515 20.7314 57.4458 20.801L57.4484 20.8034Z" fill="#705D56"/>
<path d="M16.7041 36.3868H25.7565C26.1459 36.3868 26.4632 36.6883 26.4632 37.0584V51.7518C26.4632 52.4185 25.5502 52.6783 25.1659 52.1195L21.8235 47.274C21.5449 46.8696 20.9208 46.8696 20.6397 47.274L17.2973 52.1195C16.913 52.6783 16 52.4185 16 51.7518V37.0584C16 36.6883 16.3172 36.3868 16.7067 36.3868H16.7041Z" fill="#FF7F51"/>
</svg>
