<?xml version="1.0" encoding="UTF-8"?>
<svg id="Roboto" xmlns="http://www.w3.org/2000/svg" viewBox="0 0 1920 1065.14">
  <defs>
    <style>
      .cls-1 {
        fill: #ff7f51;
      }

      .cls-2 {
        fill: #705d56;
      }
    </style>
  </defs>
  <g>
    <path d="m483.13,528.5c0,9.4-1.24,18.06-3.72,25.96-2.48,7.91-6.18,14.72-11.09,20.45-4.92,5.73-11.07,10.19-18.46,13.4-7.4,3.21-15.96,4.81-25.71,4.81s-17.76-1.41-24.81-4.23-12.93-6.92-17.63-12.31c-4.7-5.38-8.21-11.92-10.51-19.62s-3.46-16.41-3.46-26.15,1.22-18.06,3.65-25.96c2.44-7.91,6.11-14.72,11.03-20.45,4.91-5.73,11.05-10.17,18.4-13.33,7.35-3.16,15.94-4.74,25.77-4.74s17.76,1.41,24.81,4.23,12.93,6.92,17.63,12.31c4.7,5.38,8.23,11.92,10.58,19.62,2.35,7.69,3.53,16.37,3.53,26.03Zm-21.92,1.41c0-6.24-.58-12.14-1.75-17.69-1.17-5.56-3.08-10.43-5.76-14.62-2.67-4.19-6.3-7.5-10.87-9.94s-10.26-3.65-17.07-3.65c-6.3,0-11.71,1.11-16.24,3.33-4.53,2.22-8.26,5.36-11.19,9.42-2.93,4.06-5.11,8.87-6.53,14.42-1.42,5.56-2.13,11.62-2.13,18.21s.58,12.27,1.75,17.82c1.16,5.56,3.11,10.41,5.82,14.55,2.72,4.15,6.36,7.44,10.93,9.87s10.26,3.65,17.08,3.65c6.21,0,11.6-1.11,16.17-3.33,4.57-2.22,8.32-5.34,11.26-9.36,2.93-4.02,5.09-8.8,6.47-14.36,1.38-5.56,2.07-11.67,2.07-18.33Z"/>
    <path d="m614.27,528.5c0,9.4-1.24,18.06-3.72,25.96-2.48,7.91-6.18,14.72-11.09,20.45-4.92,5.73-11.07,10.19-18.46,13.4-7.4,3.21-15.96,4.81-25.71,4.81s-17.76-1.41-24.81-4.23-12.93-6.92-17.63-12.31c-4.7-5.38-8.21-11.92-10.51-19.62s-3.46-16.41-3.46-26.15,1.22-18.06,3.65-25.96c2.44-7.91,6.11-14.72,11.03-20.45,4.91-5.73,11.05-10.17,18.4-13.33,7.35-3.16,15.94-4.74,25.77-4.74s17.76,1.41,24.81,4.23,12.93,6.92,17.63,12.31c4.7,5.38,8.23,11.92,10.58,19.62,2.35,7.69,3.53,16.37,3.53,26.03Zm-21.92,1.41c0-6.24-.58-12.14-1.75-17.69-1.17-5.56-3.08-10.43-5.76-14.62-2.67-4.19-6.3-7.5-10.87-9.94s-10.26-3.65-17.07-3.65c-6.3,0-11.71,1.11-16.24,3.33-4.53,2.22-8.26,5.36-11.19,9.42-2.93,4.06-5.11,8.87-6.53,14.42-1.42,5.56-2.13,11.62-2.13,18.21s.58,12.27,1.75,17.82c1.16,5.56,3.11,10.41,5.82,14.55,2.72,4.15,6.36,7.44,10.93,9.87s10.26,3.65,17.08,3.65c6.21,0,11.6-1.11,16.17-3.33,4.57-2.22,8.32-5.34,11.26-9.36,2.93-4.02,5.09-8.8,6.47-14.36,1.38-5.56,2.07-11.67,2.07-18.33Z"/>
    <path d="m724.77,587.35c0,.68-.17,1.28-.51,1.79-.34.51-.92.94-1.73,1.28-.81.34-1.95.6-3.4.77-1.45.17-3.29.26-5.51.26s-4.21-.06-5.71-.19c-1.5-.13-2.76-.34-3.78-.64s-1.86-.73-2.5-1.28c-.64-.56-1.22-1.22-1.73-1.99l-48.72-63.85v63.98c0,.68-.17,1.26-.51,1.73-.34.47-.9.88-1.67,1.22s-1.84.6-3.21.77c-1.37.17-3.12.26-5.26.26s-3.76-.09-5.13-.26c-1.37-.17-2.46-.43-3.27-.77-.81-.34-1.37-.75-1.67-1.22-.3-.47-.45-1.05-.45-1.73v-171.29c0-.68.15-1.28.45-1.79.3-.51.85-.94,1.67-1.28.81-.34,1.9-.6,3.27-.77,1.37-.17,3.08-.26,5.13-.26s3.89.09,5.26.26c1.37.17,2.44.43,3.21.77.77.34,1.32.77,1.67,1.28.34.51.51,1.11.51,1.79v104.36l43.59-47.95c.68-.85,1.41-1.56,2.18-2.12.77-.56,1.69-1.03,2.76-1.41,1.07-.38,2.33-.64,3.78-.77,1.45-.13,3.21-.19,5.26-.19s3.93.06,5.38.19c1.45.13,2.63.34,3.53.64.9.3,1.54.68,1.92,1.15.38.47.58,1.09.58,1.86,0,1.03-.28,2.05-.83,3.08-.56,1.03-1.47,2.22-2.76,3.59l-41.8,41.8,46.92,60.9c1.11,1.45,1.9,2.63,2.37,3.53.47.9.71,1.73.71,2.5Z"/>
    <path d="m822.19,556.07c0,5.9-1.09,11.15-3.27,15.77s-5.28,8.51-9.3,11.67c-4.02,3.16-8.81,5.56-14.36,7.18-5.56,1.62-11.67,2.44-18.33,2.44-4.1,0-8.01-.32-11.73-.96-3.72-.64-7.05-1.45-10-2.44s-5.45-2.01-7.5-3.08c-2.05-1.07-3.55-2.03-4.49-2.88-.94-.85-1.63-2.05-2.05-3.59-.43-1.54-.64-3.63-.64-6.28,0-1.62.08-2.99.26-4.1.17-1.11.38-2.01.64-2.69.26-.68.62-1.17,1.09-1.47.47-.3,1-.45,1.6-.45.94,0,2.33.58,4.17,1.73,1.84,1.15,4.1,2.42,6.8,3.78,2.69,1.37,5.87,2.63,9.55,3.78,3.67,1.15,7.91,1.73,12.69,1.73,3.59,0,6.84-.38,9.74-1.15,2.91-.77,5.43-1.9,7.56-3.4,2.14-1.49,3.78-3.4,4.94-5.71s1.73-5.04,1.73-8.21-.83-5.98-2.5-8.21c-1.67-2.22-3.87-4.19-6.6-5.9-2.74-1.71-5.81-3.23-9.23-4.55-3.42-1.32-6.95-2.71-10.58-4.17-3.63-1.45-7.18-3.1-10.64-4.94-3.46-1.84-6.56-4.08-9.3-6.73-2.74-2.65-4.94-5.81-6.6-9.49-1.67-3.67-2.5-8.08-2.5-13.21,0-4.53.87-8.87,2.63-13.01,1.75-4.15,4.38-7.78,7.88-10.9,3.5-3.12,7.88-5.62,13.14-7.5,5.26-1.88,11.39-2.82,18.4-2.82,3.08,0,6.15.26,9.23.77s5.85,1.15,8.33,1.92c2.48.77,4.59,1.6,6.35,2.5,1.75.9,3.08,1.69,3.97,2.37.9.68,1.49,1.28,1.79,1.79.3.51.51,1.09.64,1.73s.26,1.43.38,2.37c.13.94.19,2.09.19,3.46,0,1.45-.06,2.71-.19,3.78-.13,1.07-.34,1.94-.64,2.63-.3.68-.66,1.18-1.09,1.47-.43.3-.9.45-1.41.45-.77,0-1.88-.47-3.33-1.41-1.45-.94-3.33-1.94-5.64-3.01-2.31-1.07-5.02-2.07-8.14-3.01-3.12-.94-6.69-1.41-10.71-1.41-3.59,0-6.75.41-9.49,1.22-2.74.81-4.98,1.97-6.73,3.46-1.75,1.5-3.08,3.27-3.97,5.32s-1.35,4.27-1.35,6.67c0,3.33.85,6.13,2.56,8.4,1.71,2.27,3.93,4.25,6.67,5.96,2.73,1.71,5.85,3.25,9.36,4.62,3.5,1.37,7.07,2.78,10.71,4.23,3.63,1.45,7.22,3.08,10.77,4.87,3.55,1.79,6.69,3.97,9.42,6.54,2.73,2.56,4.94,5.64,6.6,9.23s2.5,7.86,2.5,12.82Z"/>
  </g>
  <path d="m938.97,494.6c.49-.67-19.11-34.77,16.26-57.88,11.31-7.39,21.62-8.26,26.51-7.96,40.4,2.5,29.87,44.32,14.75,44-4.01-.08.26-5.68,1.15-15.44.5-5.53-3.72-15.2-17.74-16.88-18.69-2.23-46.35,20.28-37.19,47.81,1.39,4.2,2.55,7.1,8.33,6.61,12-1.01,15.41,5.56,15.41,9.72,0,6.86-7.12,11.21-17.42,1.86-8.57-7.78-18.16-6.38-25.91,2.28-8.9,9.92-8.5,23.97-3.35,35.14,6.98,15.13,22.91,30.69,42.17,36.2,26.39,7.56,53.45,4.45,76.74-13.02,9.62-7.22,16.02-16.62,16.95-29.01,1.06-14.02-7.63-27.53-21.41-32.24-14.93-5.09-28.89-3-41.97,6.38-5.57,4-9.75,12.62-8.93,17.66,1.46,8.95,5.78,13.2,9.32,14.67,4.88,2.02,7.51.08,7.27-5.21-.15-3.32-.16-16.66,12.12-15.8,4.47.31,7.95,4.71,8.63,9.1,1.66,10.74-4.87,19.73-17.04,20.72-15.42,1.26-30.81-12.64-24.96-33.07,4.47-15.63,15.27-24.8,30.99-28.46,10.14-2.36,20.43-2.43,30.75-2.65,10.84-.23,21.66-1.08,31.93-4.95,9.92-3.73,17.41-9.97,19.39-20.96,1.54-8.51.86-16.67-5.9-23.16-5.11-4.92-11.25-6.55-18.13-5.34-5.24.91-6.45,3.89-3.74,8.53,1.1,1.87,2.37,3.74,2.99,5.78,1.77,5.95-1.57,11.94-7.48,13.92-6.61,2.21-13.1-.5-15.58-6.64-2.32-5.7-1.43-11.12,2.21-15.93,7.27-9.6,17.47-12.52,28.85-11.32,16.98,1.8,28.87,17.95,26.77,35.69-2.33,19.71-15.72,34.11-36.18,37.56-5.84.98-19.61,1.26-20.91,1.41-.88.11,5.5,4.86,7.61,7.2,21.65,23.88,10.4,55.66-13.49,72.39-22.29,15.6-56.54,22.09-84.98,14.28-19.61-5.75-38.8-18.12-47.84-37.35-5.14-10.93-6.47-22.52-3.69-34.17,7.09-29.75,36.73-31.48,36.73-31.48"/>
  <path class="cls-2" d="m308.72,498.19c6.2-3.02,11.8-7.29,16.43-12.62,9.85-11.35,14.28-26.49,12.15-41.54-3.58-25.25-26.03-44.3-52.23-44.3H72.58l.41,18.87,18.22.59c2.34.08,4.17,1.97,4.17,4.31v55.94c0,2.38-1.94,4.31-4.32,4.31h-19.32v28.88h19.32c2.37,0,4.3,1.92,4.31,4.26v54.57c-.91,1.82-2.31,3.73-3.13,4.25l-19.3-.07-.37,21.01h212.49c26.19,0,48.65-19.05,52.23-44.3,2.13-15.05-2.29-30.19-12.15-41.54-4.63-5.33-10.23-9.6-16.43-12.62Zm7.57-47.37c.38,8.63-2.7,16.83-8.68,23.08-5.82,6.09-13.61,9.56-22.02,9.85l-156.06.03v-63.05h154.09c17.27,0,31.93,13.5,32.67,30.09Zm-32.66,124.83h-154.1v-63.02l154.92.02h1.02c8.46.26,16.29,3.73,22.14,9.85,5.98,6.25,9.06,14.45,8.68,23.07-.74,16.59-15.39,30.08-32.66,30.08Z"/>
  <path class="cls-1" d="m1285.7,400.13h-110.51l.31,13.87.19,4.96,4.95.18c15.95.56,17.33,1.54,17.3,6.33v145.93c.03,4.77-1.36,5.75-17.38,6.31l-4.96.17-.42,18.84h5.38c2.79,0,27.43,0,52.61,0h53.56c66.7-1.32,96.95-51.84,96.83-98.23-.12-46.68-30.8-97.37-97.87-98.35Zm78.27,98.28c0,37.19-24.22,77.63-77.38,78.57h-53.52v-157.12h53.48c53.2.92,77.43,41.36,77.43,78.55Z"/>
  <g>
    <path d="m1452.34,510.47c0,1.4-.03,2.58-.1,3.53-.06.96-.19,1.7-.38,2.24-.19.54-.43.96-.72,1.24-.29.29-.69.43-1.19.43s-1.13-.14-1.86-.43c-.73-.29-1.56-.57-2.48-.86-.92-.29-1.96-.56-3.11-.81-1.15-.25-2.39-.38-3.73-.38-1.59,0-3.15.32-4.68.96-1.53.64-3.14,1.69-4.82,3.15-1.69,1.47-3.45,3.41-5.3,5.83-1.85,2.42-3.88,5.38-6.11,8.88v56.55c0,.51-.13.94-.38,1.29-.25.35-.67.65-1.24.91s-1.37.44-2.39.57c-1.02.13-2.33.19-3.92.19s-2.8-.06-3.82-.19c-1.02-.13-1.83-.32-2.44-.57s-1.02-.56-1.24-.91c-.22-.35-.33-.78-.33-1.29v-85.97c0-.51.1-.94.29-1.29.19-.35.57-.67,1.15-.96s1.3-.48,2.2-.57c.89-.1,2.07-.14,3.53-.14s2.56.05,3.49.14c.92.1,1.64.29,2.15.57.51.29.87.61,1.1.96.22.35.33.78.33,1.29v12.51c2.35-3.44,4.57-6.24,6.64-8.41,2.07-2.16,4.03-3.87,5.88-5.11,1.85-1.24,3.68-2.1,5.49-2.58,1.81-.48,3.64-.72,5.49-.72.83,0,1.77.05,2.82.14,1.05.1,2.15.27,3.3.53,1.15.26,2.18.54,3.11.86.92.32,1.58.64,1.96.96.38.32.64.62.76.91.13.29.24.65.33,1.1.09.45.16,1.1.19,1.96.03.86.05,2.02.05,3.49Z"/>
    <path d="m1546.33,544.09c0,2.48-.62,4.25-1.87,5.3-1.25,1.05-2.67,1.58-4.27,1.58h-56.62c0,4.78.48,9.07,1.44,12.9.96,3.82,2.56,7.1,4.8,9.84,2.24,2.74,5.15,4.84,8.73,6.3,3.58,1.47,7.97,2.2,13.15,2.2,4.09,0,7.74-.33,10.94-1,3.2-.67,5.97-1.42,8.3-2.24,2.34-.83,4.26-1.58,5.76-2.24s2.64-1,3.41-1c.45,0,.85.11,1.2.33.35.22.62.56.82,1,.19.45.33,1.07.43,1.86.1.8.15,1.77.15,2.91,0,.83-.03,1.54-.1,2.15-.06.61-.14,1.15-.24,1.62-.09.48-.25.91-.48,1.29-.22.38-.51.75-.86,1.1-.35.35-1.38.92-3.1,1.72-1.72.8-3.95,1.58-6.69,2.34-2.74.76-5.91,1.45-9.51,2.05-3.6.6-7.44.91-11.51.91-7.07,0-13.26-.99-18.58-2.96-5.32-1.97-9.79-4.9-13.42-8.79-3.63-3.88-6.37-8.76-8.21-14.62-1.85-5.86-2.77-12.67-2.77-20.44s.96-14.03,2.87-19.92c1.91-5.89,4.66-10.89,8.26-15,3.6-4.11,7.94-7.26,13.04-9.46,5.09-2.2,10.79-3.3,17.1-3.3,6.75,0,12.5,1.08,17.24,3.25,4.74,2.17,8.65,5.08,11.7,8.74,3.06,3.66,5.3,7.96,6.74,12.9,1.43,4.94,2.15,10.21,2.15,15.81v2.87Zm-15.86-4.68c.19-8.28-1.65-14.77-5.53-19.49-3.88-4.71-9.63-7.07-17.25-7.07-3.91,0-7.34.73-10.28,2.2-2.95,1.47-5.42,3.41-7.4,5.83-1.99,2.42-3.52,5.24-4.61,8.45-1.09,3.22-1.7,6.58-1.83,10.08h46.9Z"/>
    <path d="m1632.45,590.9c0,.76-.25,1.34-.76,1.72-.51.38-1.21.67-2.1.86-.89.19-2.2.29-3.92.29s-2.98-.1-3.96-.29c-.99-.19-1.71-.48-2.15-.86-.45-.38-.67-.96-.67-1.72v-8.6c-3.76,4.01-7.94,7.13-12.56,9.36s-9.5,3.34-14.66,3.34c-4.52,0-8.61-.59-12.28-1.77s-6.78-2.88-9.36-5.11c-2.58-2.23-4.59-4.97-6.02-8.21-1.43-3.25-2.15-6.94-2.15-11.08,0-4.84.99-9.04,2.96-12.61,1.97-3.57,4.81-6.53,8.5-8.88,3.69-2.35,8.21-4.12,13.56-5.3,5.35-1.18,11.37-1.77,18.05-1.77h11.84v-6.69c0-3.31-.35-6.24-1.05-8.79-.7-2.55-1.83-4.66-3.39-6.35-1.56-1.69-3.58-2.96-6.07-3.82s-5.54-1.29-9.17-1.29c-3.88,0-7.37.46-10.46,1.39-3.09.92-5.8,1.94-8.12,3.06-2.33,1.12-4.27,2.13-5.83,3.06-1.56.92-2.72,1.39-3.49,1.39-.51,0-.96-.13-1.34-.38-.38-.25-.72-.64-1-1.15-.29-.51-.49-1.16-.62-1.96-.13-.8-.19-1.67-.19-2.63,0-1.59.11-2.85.33-3.77.22-.92.76-1.8,1.63-2.63.86-.83,2.34-1.8,4.44-2.91,2.1-1.11,4.52-2.13,7.26-3.06,2.74-.92,5.73-1.69,8.98-2.29,3.25-.6,6.53-.91,9.84-.91,6.18,0,11.43.7,15.76,2.1,4.33,1.4,7.83,3.46,10.51,6.16,2.67,2.71,4.62,6.07,5.83,10.08,1.21,4.01,1.81,8.69,1.81,14.04v57.98Zm-15.67-39.26h-13.47c-4.33,0-8.09.37-11.27,1.1-3.19.73-5.83,1.81-7.93,3.25s-3.65,3.15-4.63,5.16c-.99,2.01-1.48,4.32-1.48,6.93,0,4.46,1.42,8.01,4.25,10.65,2.83,2.64,6.8,3.96,11.89,3.96,4.14,0,7.98-1.05,11.51-3.15,3.53-2.1,7.24-5.32,11.13-9.65v-18.24Z"/>
    <path d="m1775.78,590.8c0,.51-.13.94-.38,1.29-.25.35-.67.65-1.24.91s-1.37.44-2.39.57c-1.02.13-2.29.19-3.82.19s-2.9-.06-3.92-.19c-1.02-.13-1.83-.32-2.44-.57s-1.04-.56-1.29-.91c-.25-.35-.38-.78-.38-1.29v-52.25c0-3.63-.32-6.94-.96-9.93-.64-2.99-1.66-5.57-3.06-7.74-1.4-2.16-3.19-3.82-5.35-4.97-2.17-1.15-4.71-1.72-7.64-1.72-3.63,0-7.28,1.4-10.94,4.2-3.66,2.8-7.69,6.91-12.08,12.32v60.08c0,.51-.13.94-.38,1.29-.25.35-.69.65-1.29.91s-1.42.44-2.44.57c-1.02.13-2.29.19-3.82.19s-2.72-.06-3.77-.19c-1.05-.13-1.88-.32-2.48-.57-.61-.25-1.02-.56-1.24-.91-.22-.35-.33-.78-.33-1.29v-52.25c0-3.63-.35-6.94-1.05-9.93-.7-2.99-1.75-5.57-3.15-7.74-1.4-2.16-3.17-3.82-5.3-4.97-2.13-1.15-4.67-1.72-7.59-1.72-3.63,0-7.29,1.4-10.99,4.2-3.69,2.8-7.71,6.91-12.04,12.32v60.08c0,.51-.13.94-.38,1.29-.25.35-.67.65-1.24.91s-1.37.44-2.39.57c-1.02.13-2.33.19-3.92.19s-2.8-.06-3.82-.19c-1.02-.13-1.83-.32-2.44-.57s-1.02-.56-1.24-.91c-.22-.35-.33-.78-.33-1.29v-85.97c0-.51.1-.94.29-1.29.19-.35.57-.67,1.15-.96s1.3-.48,2.2-.57c.89-.1,2.07-.14,3.53-.14s2.56.05,3.49.14c.92.1,1.64.29,2.15.57.51.29.87.61,1.1.96.22.35.33.78.33,1.29v11.37c4.84-5.41,9.54-9.38,14.09-11.89,4.55-2.51,9.15-3.77,13.8-3.77,3.57,0,6.77.42,9.6,1.24,2.83.83,5.33,1.99,7.5,3.49,2.16,1.5,4.01,3.28,5.54,5.35,1.53,2.07,2.8,4.38,3.82,6.93,2.87-3.12,5.59-5.76,8.17-7.93,2.58-2.16,5.06-3.92,7.45-5.25,2.39-1.34,4.71-2.31,6.97-2.91,2.26-.6,4.54-.91,6.83-.91,5.54,0,10.19.97,13.95,2.91,3.76,1.94,6.8,4.54,9.12,7.79,2.32,3.25,3.98,7.05,4.97,11.42.99,4.36,1.48,8.96,1.48,13.8v54.35Z"/>
    <path d="m1853.26,567.4c0,4.39-.81,8.31-2.44,11.75-1.63,3.44-3.93,6.34-6.93,8.69-2.99,2.36-6.56,4.14-10.7,5.35-4.14,1.21-8.69,1.81-13.66,1.81-3.06,0-5.97-.24-8.74-.72-2.77-.48-5.25-1.08-7.45-1.81-2.2-.73-4.06-1.5-5.59-2.29-1.53-.8-2.64-1.51-3.34-2.15-.7-.64-1.21-1.53-1.53-2.67-.32-1.15-.48-2.71-.48-4.68,0-1.21.06-2.23.19-3.06.13-.83.29-1.5.48-2.01.19-.51.46-.87.81-1.1.35-.22.75-.33,1.19-.33.7,0,1.73.43,3.1,1.29s3.06,1.8,5.06,2.82c2,1.02,4.38,1.96,7.12,2.82,2.74.86,5.89,1.29,9.46,1.29,2.67,0,5.09-.29,7.26-.86,2.16-.57,4.04-1.42,5.64-2.53,1.59-1.11,2.82-2.53,3.68-4.25.86-1.72,1.29-3.76,1.29-6.11s-.62-4.46-1.86-6.11c-1.24-1.66-2.88-3.12-4.92-4.39-2.04-1.27-4.33-2.4-6.88-3.39-2.55-.99-5.17-2.02-7.88-3.1-2.71-1.08-5.35-2.31-7.93-3.68-2.58-1.37-4.89-3.04-6.93-5.01-2.04-1.97-3.68-4.33-4.92-7.07-1.24-2.74-1.86-6.02-1.86-9.84,0-3.37.65-6.61,1.96-9.7,1.31-3.09,3.26-5.79,5.88-8.12,2.61-2.32,5.88-4.19,9.79-5.59,3.92-1.4,8.49-2.1,13.71-2.1,2.29,0,4.59.19,6.88.57s4.36.86,6.21,1.43c1.85.57,3.42,1.19,4.73,1.86s2.29,1.26,2.96,1.77c.67.51,1.11.96,1.34,1.34.22.38.38.81.48,1.29.1.48.19,1.07.29,1.77.09.7.14,1.56.14,2.58,0,1.08-.05,2.02-.14,2.82-.1.8-.26,1.45-.48,1.96-.22.51-.49.88-.81,1.1-.32.22-.67.33-1.05.33-.57,0-1.4-.35-2.48-1.05-1.08-.7-2.48-1.45-4.2-2.24-1.72-.8-3.74-1.54-6.07-2.24-2.33-.7-4.98-1.05-7.98-1.05-2.67,0-5.03.3-7.07.91-2.04.61-3.71,1.47-5.01,2.58-1.31,1.12-2.29,2.44-2.96,3.96-.67,1.53-1,3.19-1,4.97,0,2.48.64,4.57,1.91,6.26,1.27,1.69,2.93,3.17,4.97,4.44,2.04,1.27,4.36,2.42,6.97,3.44,2.61,1.02,5.27,2.07,7.98,3.15,2.71,1.08,5.38,2.29,8.02,3.63,2.64,1.34,4.98,2.96,7.02,4.87,2.04,1.91,3.68,4.2,4.92,6.88,1.24,2.67,1.86,5.86,1.86,9.55Z"/>
  </g>
  <path class="cls-2" d="m308.44,498.02c5.32-2.61,10.2-6.17,14.45-10.57,9.84-10.2,14.99-23.63,14.48-37.83-.98-27.51-24.69-49.89-52.85-49.89H72.17l.42,18.84,18.16.59c2.34.08,4.18,1.97,4.18,4.31v55.75c0,2.38-1.94,4.31-4.32,4.31h-18.32v28.96h18.37c2.37,0,4.3,1.92,4.32,4.29l.3,55.45c0,1.16-.44,2.25-1.26,3.07-.82.82-1.9,1.27-3.06,1.27h-18.38l-.4,19.73h212.34c28.17,0,51.87-22.38,52.85-49.89.51-14.2-4.64-27.63-14.48-37.83-4.25-4.41-9.14-7.96-14.45-10.57Zm-23.41,78.56h-154.97v-64.06l155.59.02h1.02c8.27.25,15.99,3.62,21.82,9.55,6.07,6.17,9.33,14.34,9.19,23.01-.29,17.36-14.93,31.48-32.64,31.48Zm1.75-93.07l-156.72.03v-64.08h154.97c17.71,0,32.35,14.12,32.64,31.48.15,8.67-3.12,16.84-9.19,23.01-5.81,5.9-13.47,9.27-21.71,9.55Z"/>
  <path class="cls-1" d="m132.79,544.54h35.1c1.51,0,2.74,1.23,2.74,2.74v59.95c0,2.72-3.54,3.78-5.03,1.5l-12.96-19.77c-1.08-1.65-3.5-1.65-4.59,0l-12.96,19.77c-1.49,2.28-5.03,1.22-5.03-1.5v-59.95c0-1.51,1.23-2.74,2.74-2.74Z"/>
</svg>