<svg width="38" height="38" viewBox="0 0 38 38" fill="none" xmlns="http://www.w3.org/2000/svg">
<circle cx="19.1499" cy="18.718" r="18.1188" fill="#FF7F51"/>
<path d="M28.2074 12.8692C28.9832 12.0934 28.9832 10.8397 28.2074 10.0639C27.4315 9.28801 26.1779 9.28801 25.402 10.0639L19.09 16.3759L12.778 10.0639C12.0021 9.28801 10.7485 9.28801 9.97262 10.0639C9.19677 10.8397 9.19677 12.0934 9.97262 12.8692L16.2846 19.1812L9.97262 25.4933C9.19677 26.2691 9.19677 27.5228 9.97262 28.2986C10.7485 29.0745 12.0021 29.0745 12.778 28.2986L19.09 21.9866L25.402 28.2986C26.1779 29.0745 27.4315 29.0745 28.2074 28.2986C28.9832 27.5228 28.9832 26.2691 28.2074 25.4933L21.8953 19.1812L28.2074 12.8692Z" fill="white"/>
</svg>
